<svg width="19" height="18" viewBox="0 0 19 18" fill="none" xmlns="http://www.w3.org/2000/svg">
<mask id="path-1-inside-1_2_10" fill="white">
<path fill-rule="evenodd" clip-rule="evenodd" d="M9.5 18C14.4706 18 18.5 13.9706 18.5 9C18.5 4.02944 14.4706 0 9.5 0C4.52944 0 0.5 4.02944 0.5 9C0.5 13.9706 4.52944 18 9.5 18ZM13.6303 6.83033C13.9232 6.53744 13.9232 6.06256 13.6303 5.76967C13.3374 5.47678 12.8626 5.47678 12.5697 5.76967L8.15 10.1893L5.53033 7.56967C5.23744 7.27678 4.76256 7.27678 4.46967 7.56967C4.17678 7.86256 4.17678 8.33744 4.46967 8.63033L7.61967 11.7803L8.15 12.3107L8.68033 11.7803L13.6303 6.83033Z"/>
</mask>
<path fill-rule="evenodd" clip-rule="evenodd" d="M9.5 18C14.4706 18 18.5 13.9706 18.5 9C18.5 4.02944 14.4706 0 9.5 0C4.52944 0 0.5 4.02944 0.5 9C0.5 13.9706 4.52944 18 9.5 18ZM13.6303 6.83033C13.9232 6.53744 13.9232 6.06256 13.6303 5.76967C13.3374 5.47678 12.8626 5.47678 12.5697 5.76967L8.15 10.1893L5.53033 7.56967C5.23744 7.27678 4.76256 7.27678 4.46967 7.56967C4.17678 7.86256 4.17678 8.33744 4.46967 8.63033L7.61967 11.7803L8.15 12.3107L8.68033 11.7803L13.6303 6.83033Z" fill="white"/>
<path d="M13.6303 5.76967L12.9232 6.47678L12.9232 6.47678L13.6303 5.76967ZM13.6303 6.83033L12.9232 6.12322L12.9232 6.12322L13.6303 6.83033ZM12.5697 5.76967L11.8626 5.06256L11.8626 5.06256L12.5697 5.76967ZM8.15 10.1893L7.44289 10.8964L8.15 11.6036L8.85711 10.8964L8.15 10.1893ZM5.53033 7.56967L4.82322 8.27678L4.82322 8.27678L5.53033 7.56967ZM4.46967 7.56967L5.17678 8.27678L5.17678 8.27678L4.46967 7.56967ZM4.46967 8.63033L3.76256 9.33744L3.76256 9.33744L4.46967 8.63033ZM7.61967 11.7803L6.91256 12.4874L6.91256 12.4874L7.61967 11.7803ZM8.15 12.3107L7.44289 13.0178L8.15 13.7249L8.85711 13.0178L8.15 12.3107ZM8.68033 11.7803L9.38744 12.4874L9.38744 12.4874L8.68033 11.7803ZM17.5 9C17.5 13.4183 13.9183 17 9.5 17V19C15.0228 19 19.5 14.5228 19.5 9H17.5ZM9.5 1C13.9183 1 17.5 4.58172 17.5 9H19.5C19.5 3.47715 15.0228 -1 9.5 -1V1ZM1.5 9C1.5 4.58172 5.08172 1 9.5 1V-1C3.97715 -1 -0.5 3.47715 -0.5 9H1.5ZM9.5 17C5.08172 17 1.5 13.4183 1.5 9H-0.5C-0.5 14.5228 3.97715 19 9.5 19V17ZM12.9232 6.47678C12.8256 6.37915 12.8256 6.22085 12.9232 6.12322L14.3374 7.53744C15.0209 6.85402 15.0209 5.74598 14.3374 5.06256L12.9232 6.47678ZM13.2768 6.47678C13.1791 6.57441 13.0209 6.57441 12.9232 6.47678L14.3374 5.06256C13.654 4.37914 12.546 4.37915 11.8626 5.06256L13.2768 6.47678ZM8.85711 10.8964L13.2768 6.47678L11.8626 5.06256L7.44289 9.48223L8.85711 10.8964ZM4.82322 8.27678L7.44289 10.8964L8.85711 9.48223L6.23744 6.86256L4.82322 8.27678ZM5.17678 8.27678C5.07915 8.37441 4.92085 8.37441 4.82322 8.27678L6.23744 6.86256C5.55402 6.17915 4.44598 6.17915 3.76256 6.86256L5.17678 8.27678ZM5.17678 7.92322C5.27441 8.02085 5.27441 8.17915 5.17678 8.27678L3.76256 6.86256C3.07915 7.54598 3.07915 8.65402 3.76256 9.33744L5.17678 7.92322ZM8.32678 11.0732L5.17678 7.92322L3.76256 9.33744L6.91256 12.4874L8.32678 11.0732ZM8.85711 11.6036L8.32678 11.0732L6.91256 12.4874L7.44289 13.0178L8.85711 11.6036ZM7.97322 11.0732L7.44289 11.6036L8.85711 13.0178L9.38744 12.4874L7.97322 11.0732ZM12.9232 6.12322L7.97322 11.0732L9.38744 12.4874L14.3374 7.53744L12.9232 6.12322Z" fill="white" mask="url(#path-1-inside-1_2_10)"/>
</svg>
