<svg width="20" height="36" viewBox="0 0 20 36" fill="none" xmlns="http://www.w3.org/2000/svg">
<g id="Car" filter="url(#filter0_d_433_2885)">
<path id="color" d="M16.7638 6.29635L16.6919 5.15264C16.626 4.12211 16.3024 3.12137 15.7211 2.26955C14.6543 0.714818 13.0962 0.0893522 10.801 0L8.98519 0C6.69596 0.0893522 5.13185 0.714818 4.07113 2.26955C3.48984 3.12137 3.16623 4.12211 3.10031 5.15264L3.02839 6.29635C2.98045 7.035 2.99244 7.7796 3.07034 8.51824L3.08832 8.68503L3.08832 27.2882C3.13626 28.3723 3.33402 28.9382 3.6816 29.8317C4.32283 31.309 5.65921 31.9702 9.26086 31.9881H10.5373C14.139 31.9702 15.4754 31.3031 16.1166 29.8317C16.4642 28.9382 16.6559 28.3723 16.7099 27.2882V8.69099L16.7278 8.5242C16.7938 7.78555 16.8057 7.04095 16.7638 6.29635ZM15.4154 9.5309L14.6184 13.5815C14.5645 13.8555 14.5165 14.1296 14.4746 14.4036C10.9448 13.653 8.8174 13.5756 5.24571 14.4036C5.20376 14.1296 5.15582 13.8555 5.10189 13.5815L4.30485 9.5309C4.13106 8.65525 4.60449 7.7796 5.43748 7.45197C6.54015 7.01713 7.81661 6.82651 9.52454 6.77885H10.1837C11.8917 6.82651 13.1741 7.02308 14.2708 7.45793C15.1158 7.7796 15.5892 8.65525 15.4154 9.5309Z" fill="white"/>
<g id="lines">
<path id="Vector" d="M6.70701 0.881836L6.1377 7.25562H6.20961L7.00665 0.917577C6.86881 0.917577 6.76694 0.923534 6.70701 0.881836Z" fill="#E7E7E7"/>
<path id="Vector_2" d="M13.2932 0.881836L13.8625 7.25562H13.7906L12.9995 0.917577C13.1314 0.917577 13.2332 0.923534 13.2932 0.881836Z" fill="#E7E7E7"/>
</g>
<g id="window">
<path id="Vector_3" d="M15.1269 26.1982C15.1269 26.913 15.0489 27.4908 14.8692 27.9555C14.8572 27.9078 14.8332 27.8602 14.8032 27.8125C14.7373 27.9793 14.6654 28.1342 14.5935 28.2831C14.3538 28.7537 13.9283 29.0992 13.4249 29.266C12.6339 29.5221 11.8908 29.6174 10.866 29.6889C10.6083 29.7068 10.3566 29.7127 10.0989 29.7127H9.93113C9.67944 29.7127 9.42774 29.7068 9.18204 29.6889C8.15128 29.6174 7.40818 29.5221 6.61115 29.266C6.10775 29.1051 5.68826 28.7537 5.44256 28.2831C5.36465 28.1342 5.29873 27.9793 5.22682 27.8065C5.20285 27.8423 5.18487 27.878 5.16689 27.9197C4.98112 27.4611 4.89722 26.8952 4.89722 26.1982C4.89722 25.8944 4.9152 25.5847 4.94516 25.2749H15.0729C15.1149 25.5906 15.1269 25.8944 15.1269 26.1982Z" fill="#4B545A"/>
<g id="Vector_4">
<path d="M15.1269 26.1982C15.1269 26.913 15.0489 27.4908 14.8692 27.9555C14.8572 27.9078 14.8332 27.8602 14.8032 27.8125C14.7373 27.9793 14.6654 28.1342 14.5935 28.2831C14.3538 28.7537 13.9283 29.0992 13.4249 29.266C12.6339 29.5221 11.8908 29.6174 10.866 29.6889C10.6083 29.7068 10.3566 29.7127 10.0989 29.7127H9.93113C9.67944 29.7127 9.42774 29.7068 9.18204 29.6889C8.15128 29.6174 7.40818 29.5221 6.61115 29.266C6.10775 29.1051 5.68826 28.7537 5.44256 28.2831C5.36465 28.1342 5.29873 27.9793 5.22682 27.8065C5.20285 27.8423 5.18487 27.878 5.16689 27.9197C4.98112 27.4611 4.89722 26.8952 4.89722 26.1982C4.89722 25.8944 4.9152 25.5847 4.94516 25.2749H15.0729C15.1149 25.5906 15.1269 25.8944 15.1269 26.1982Z" fill="#4388FC" fill-opacity="0.1"/>
<path d="M15.1269 26.1982C15.1269 26.913 15.0489 27.4908 14.8692 27.9555C14.8572 27.9078 14.8332 27.8602 14.8032 27.8125C14.7373 27.9793 14.6654 28.1342 14.5935 28.2831C14.3538 28.7537 13.9283 29.0992 13.4249 29.266C12.6339 29.5221 11.8908 29.6174 10.866 29.6889C10.6083 29.7068 10.3566 29.7127 10.0989 29.7127H9.93113C9.67944 29.7127 9.42774 29.7068 9.18204 29.6889C8.15128 29.6174 7.40818 29.5221 6.61115 29.266C6.10775 29.1051 5.68826 28.7537 5.44256 28.2831C5.36465 28.1342 5.29873 27.9793 5.22682 27.8065C5.20285 27.8423 5.18487 27.878 5.16689 27.9197C4.98112 27.4611 4.89722 26.8952 4.89722 26.1982C4.89722 25.8944 4.9152 25.5847 4.94516 25.2749H15.0729C15.1149 25.5906 15.1269 25.8944 15.1269 26.1982Z" fill="url(#paint0_radial_433_2885)"/>
</g>
</g>
<g id="window_2">
<path id="Vector_5" d="M5.12492 23.7198C5.11293 24.2678 5.10095 24.8337 5.08896 25.4592C5.08896 25.5068 5.07697 25.5545 5.053 25.5962C4.95113 25.7868 4.8073 25.8523 4.57958 25.8106C4.24997 25.7094 4.08218 25.4056 4.07019 24.8695L3.74658 9.9C3.74658 9.88808 3.74658 9.87617 3.74658 9.86426C3.75257 9.87021 3.75857 9.88213 3.76456 9.89404L3.93835 10.2276C3.97431 10.2991 4.00427 10.3765 4.02225 10.4599L4.51366 13.0333C4.86124 14.8561 5.04701 16.4704 5.07098 17.9834C5.19683 20.3006 5.16687 21.8851 5.12492 23.7198Z" fill="#4B545A"/>
<g id="Vector_6">
<path d="M5.12492 23.7198C5.11293 24.2678 5.10095 24.8337 5.08896 25.4592C5.08896 25.5069 5.07697 25.5545 5.053 25.5962C4.95113 25.7868 4.8073 25.8523 4.57958 25.8106C4.24997 25.7094 4.08218 25.4056 4.07019 24.8695L3.74658 9.9C3.74658 9.88808 3.74658 9.87617 3.74658 9.86426C3.75257 9.87021 3.75857 9.88213 3.76456 9.89404L3.93835 10.2276C3.97431 10.2991 4.00427 10.3765 4.02225 10.4599L4.51366 13.0333C4.86124 14.8561 5.04701 16.4704 5.07098 17.9834C5.19683 20.3006 5.16687 21.8851 5.12492 23.7198Z" fill="#4388FC" fill-opacity="0.1"/>
<path d="M5.12492 23.7198C5.11293 24.2678 5.10095 24.8337 5.08896 25.4592C5.08896 25.5069 5.07697 25.5545 5.053 25.5962C4.95113 25.7868 4.8073 25.8523 4.57958 25.8106C4.24997 25.7094 4.08218 25.4056 4.07019 24.8695L3.74658 9.9C3.74658 9.88808 3.74658 9.87617 3.74658 9.86426C3.75257 9.87021 3.75857 9.88213 3.76456 9.89404L3.93835 10.2276C3.97431 10.2991 4.00427 10.3765 4.02225 10.4599L4.51366 13.0333C4.86124 14.8561 5.04701 16.4704 5.07098 17.9834C5.19683 20.3006 5.16687 21.8851 5.12492 23.7198Z" fill="url(#paint1_radial_433_2885)"/>
</g>
<path id="Vector_7" d="M3.9444 18.9542C4.33393 19.1687 4.62159 19.2461 5.13097 19.3057L5.09501 18.3943C4.63956 18.1501 4.30397 17.9118 3.90845 17.5127L3.9444 18.9542Z" fill="#4B545A"/>
<path id="Vector_8" d="M4.26782 11.7347L3.7884 11.6096L3.75244 9.9C3.75244 9.88808 3.75244 9.87617 3.75244 9.86426C3.75843 9.87021 3.76443 9.88213 3.77042 9.89404L3.94421 10.2276C3.98017 10.2991 4.01013 10.3765 4.02811 10.4599L4.26782 11.7347Z" fill="#4B545A"/>
</g>
<g id="window_3">
<path id="Vector_9" d="M14.8811 23.7198C14.8931 24.2678 14.905 24.8337 14.917 25.4592C14.917 25.5068 14.929 25.5545 14.953 25.5962C15.0549 25.7868 15.1987 25.8523 15.4264 25.8106C15.756 25.7094 15.9238 25.4056 15.9358 24.8695L16.2594 9.9C16.2594 9.88808 16.2594 9.87617 16.2594 9.86426C16.2534 9.87021 16.2474 9.88213 16.2414 9.89404L16.0676 10.2276C16.0317 10.2991 16.0017 10.3765 15.9837 10.4599L15.4863 13.0452C15.1388 14.868 14.953 16.4823 14.929 17.9953C14.8032 20.3006 14.8391 21.8851 14.8811 23.7198Z" fill="#4B545A"/>
<g id="Vector_10">
<path d="M14.8811 23.7198C14.8931 24.2678 14.905 24.8337 14.917 25.4592C14.917 25.5069 14.929 25.5545 14.953 25.5962C15.0549 25.7868 15.1987 25.8523 15.4264 25.8106C15.756 25.7094 15.9238 25.4056 15.9358 24.8695L16.2594 9.9C16.2594 9.88808 16.2594 9.87617 16.2594 9.86426C16.2534 9.87021 16.2474 9.88213 16.2414 9.89404L16.0676 10.2276C16.0317 10.2991 16.0017 10.3765 15.9837 10.4599L15.4863 13.0452C15.1388 14.868 14.953 16.4823 14.929 17.9953C14.8032 20.3006 14.8391 21.8851 14.8811 23.7198Z" fill="#4388FC" fill-opacity="0.1"/>
<path d="M14.8811 23.7198C14.8931 24.2678 14.905 24.8337 14.917 25.4592C14.917 25.5069 14.929 25.5545 14.953 25.5962C15.0549 25.7868 15.1987 25.8523 15.4264 25.8106C15.756 25.7094 15.9238 25.4056 15.9358 24.8695L16.2594 9.9C16.2594 9.88808 16.2594 9.87617 16.2594 9.86426C16.2534 9.87021 16.2474 9.88213 16.2414 9.89404L16.0676 10.2276C16.0317 10.2991 16.0017 10.3765 15.9837 10.4599L15.4863 13.0452C15.1388 14.868 14.953 16.4823 14.929 17.9953C14.8032 20.3006 14.8391 21.8851 14.8811 23.7198Z" fill="url(#paint2_radial_433_2885)"/>
</g>
<path id="Vector_11" d="M16.0616 18.9601C15.672 19.1745 15.3844 19.252 14.875 19.3116L14.911 18.4002C15.3664 18.1559 15.702 17.9177 16.0975 17.5186L16.0616 18.9601Z" fill="#4B545A"/>
<path id="Vector_12" d="M15.738 11.7406L16.2175 11.6155L16.2534 9.90586C16.2534 9.89394 16.2534 9.88203 16.2534 9.87012C16.2474 9.87607 16.2414 9.88799 16.2354 9.8999L16.0616 10.2335C16.0257 10.305 15.9957 10.3824 15.9777 10.4658L15.738 11.7406Z" fill="#4B545A"/>
</g>
<g id="mirror ">
<path id="Vector_13" d="M3.95028 10.7222C3.98624 10.8651 3.98024 10.9485 3.95028 11.0855H3.45288V10.7222H3.95028Z" fill="#594F4F"/>
<path id="Vector_14" d="M3.53681 10.8236L3.53082 11.3239C3.53082 11.3775 3.49486 11.4252 3.44093 11.4431L2.14649 11.872C2.10454 11.8839 2.0566 11.86 2.04461 11.8183C2.02663 11.7528 2.00866 11.6813 2.00266 11.592C1.99667 11.5324 2.00266 11.4728 2.00266 11.4252C2.01465 11.3001 2.06259 11.181 2.1405 11.0857C2.21241 11.0023 2.3023 10.9189 2.44013 10.8533C2.61392 10.7699 2.84764 10.7223 3.08136 10.7163C3.18923 10.7104 3.32706 10.7163 3.43493 10.7223C3.49486 10.7223 3.53681 10.7699 3.53681 10.8236Z" fill="#594F4F"/>
</g>
<g id="mirror _2">
<path id="Vector_15" d="M16.0497 10.7227C16.0137 10.8656 16.0197 10.949 16.0497 11.086H16.5471V10.7227H16.0497Z" fill="#594F4F"/>
<path id="Vector_16" d="M16.4631 10.8294L16.4691 11.3298C16.4691 11.3834 16.5051 11.4311 16.559 11.4489L17.8535 11.8778C17.8954 11.8897 17.9433 11.8659 17.9553 11.8242C17.9733 11.7587 17.9913 11.6872 17.9973 11.5978C18.0033 11.5383 17.9973 11.4787 17.9973 11.4311C17.9853 11.306 17.9374 11.1868 17.8594 11.0915C17.7875 11.0081 17.6976 10.9247 17.5598 10.8592C17.386 10.7758 17.1523 10.7282 16.9186 10.7222C16.8107 10.7162 16.6729 10.7222 16.565 10.7282C16.5051 10.7282 16.4631 10.7698 16.4631 10.8294Z" fill="#594F4F"/>
</g>
<g id="light">
<path id="Vector_17" d="M6.25747 1.09619C4.993 1.86462 4.27986 2.7641 3.91431 4.19373V3.47892C3.91431 3.05598 4.05813 2.65092 4.3338 2.32925C4.87315 1.70974 5.40051 1.30468 6.25747 1.09619Z" fill="url(#paint3_linear_433_2885)"/>
<path id="Vector_18" d="M6.25747 1.09619C4.993 1.86462 4.27986 2.7641 3.91431 4.19373V3.47892C3.91431 3.05598 4.05813 2.65092 4.3338 2.32925C4.87315 1.70974 5.40051 1.30468 6.25747 1.09619Z" fill="url(#paint4_linear_433_2885)"/>
<path id="Vector_19" d="M3.92041 4.18778V3.47892C3.92041 3.05598 4.06424 2.65092 4.3399 2.32925C4.87326 1.70974 5.40062 1.30468 6.25759 1.09619C4.99311 1.86462 4.27998 2.75814 3.92041 4.18778Z" fill="#D5E3F0"/>
</g>
<g id="light_2">
<path id="Vector_20" d="M13.6885 1.09619C14.9529 1.86462 15.6661 2.7641 16.0316 4.19373V3.47892C16.0316 3.05598 15.8878 2.65092 15.6122 2.32925C15.0788 1.70974 14.5454 1.30468 13.6885 1.09619Z" fill="url(#paint5_linear_433_2885)"/>
<path id="Vector_21" d="M16.0316 4.18787V3.47901C16.0316 3.05608 15.8878 2.65102 15.6122 2.32935C15.0788 1.70388 14.5454 1.29882 13.6885 1.09033C14.9529 1.86472 15.6661 2.75824 16.0316 4.18787Z" fill="#D5E3F0" fill-opacity="0.85"/>
</g>
<g id="light_3">
<path id="Vector_22" d="M6.11979 31.6787C4.83135 31.3451 4.17814 30.7435 3.78261 29.8381C3.68074 29.576 3.59085 29.3377 3.51294 29.1113L3.63279 29.1471C4.03431 29.2722 4.35792 29.564 4.52572 29.9453C4.79539 30.5648 5.07705 30.8328 5.89207 31.2498C6.05387 31.3332 6.14376 31.506 6.11979 31.6787Z" fill="#D8394C"/>
</g>
<g id="light_4">
<path id="Vector_23" d="M13.8803 31.6782C15.1687 31.3446 15.822 30.743 16.2175 29.8376C16.3194 29.5755 16.4092 29.3372 16.4871 29.1108L16.3673 29.1466C15.9658 29.2717 15.6422 29.5636 15.4744 29.9448C15.2047 30.5643 14.923 30.8324 14.108 31.2493C13.9462 31.3327 13.8563 31.5055 13.8803 31.6782Z" fill="#D8394C"/>
</g>
<path id="Vector_24" d="M10.2966 8.23203C12.0465 8.27968 13.293 8.48817 14.3297 8.89919C14.7792 9.07789 15.1268 9.4353 15.2946 9.88206L14.5695 13.5515C14.5275 13.7719 14.4856 13.9982 14.4496 14.2186C12.5619 13.8255 11.1835 13.6587 9.87113 13.6587C8.54074 13.6587 7.17439 13.8314 5.47844 14.2186C5.44248 13.9982 5.40653 13.7719 5.35859 13.5515L4.63945 9.88206C4.80725 9.4353 5.15483 9.07789 5.60429 8.89919C6.64703 8.48817 7.88753 8.28564 9.63741 8.23203H10.2966ZM10.2966 8.07715H9.63741C7.92948 8.1248 6.64703 8.32138 5.55035 8.75027C5.03498 8.9528 4.65144 9.36978 4.48364 9.86419L5.21476 13.5812C5.26869 13.8553 5.31664 14.1293 5.35859 14.4033C7.10248 13.9982 8.49879 13.8136 9.88312 13.8136C11.3394 13.8136 12.7776 14.022 14.5934 14.4033C14.6354 14.1293 14.6833 13.8553 14.7373 13.5812L15.4684 9.87015C15.2946 9.37573 14.917 8.95876 14.4017 8.75622C13.287 8.32138 12.0046 8.1248 10.2966 8.07715Z" fill="#1D1F24"/>
<path id="Vector_25" d="M15.4565 9.87054L14.7254 13.5816C14.6715 13.8556 14.6235 14.1297 14.5816 14.4037C11.0518 13.6531 8.92441 13.5757 5.35273 14.4037C5.31078 14.1297 5.26283 13.8556 5.2089 13.5816L4.47778 9.87054C4.65157 9.37612 5.02912 8.95915 5.54449 8.75662C6.64716 8.32177 7.92362 8.13115 9.63156 8.0835H10.2908C11.9987 8.13115 13.2811 8.32773 14.3778 8.76257C14.9052 8.95915 15.2827 9.37612 15.4565 9.87054Z" fill="#4B545A"/>
<g id="Vector_26">
<path d="M15.4565 9.87054L14.7254 13.5816C14.6715 13.8556 14.6235 14.1297 14.5816 14.4037C11.0518 13.6531 8.92441 13.5757 5.35273 14.4037C5.31078 14.1297 5.26283 13.8556 5.2089 13.5816L4.47778 9.87054C4.65157 9.37612 5.02912 8.95915 5.54449 8.75662C6.64716 8.32177 7.92362 8.13115 9.63156 8.0835H10.2908C11.9987 8.13115 13.2811 8.32773 14.3778 8.76257C14.9052 8.95915 15.2827 9.37612 15.4565 9.87054Z" fill="#4388FC" fill-opacity="0.1"/>
<path d="M15.4565 9.87054L14.7254 13.5816C14.6715 13.8556 14.6235 14.1297 14.5816 14.4037C11.0518 13.6531 8.92441 13.5757 5.35273 14.4037C5.31078 14.1297 5.26283 13.8556 5.2089 13.5816L4.47778 9.87054C4.65157 9.37612 5.02912 8.95915 5.54449 8.75662C6.64716 8.32177 7.92362 8.13115 9.63156 8.0835H10.2908C11.9987 8.13115 13.2811 8.32773 14.3778 8.76257C14.9052 8.95915 15.2827 9.37612 15.4565 9.87054Z" fill="url(#paint6_radial_433_2885)"/>
</g>
<path id="Vector_27" d="M15.5223 9.53095C15.696 8.6553 15.2226 7.77965 14.3896 7.45203C13.287 7.01718 12.0105 6.82656 10.3026 6.77295H9.64336C7.93542 6.8206 6.65297 7.01718 5.5563 7.44607C4.72331 7.77369 4.24988 8.64934 4.42367 9.525L4.48959 9.86454C4.66338 9.37012 5.04092 8.95314 5.5563 8.75061C6.65897 8.31576 7.93542 8.12515 9.64336 8.07749H10.3026C12.0105 8.12515 13.2929 8.32172 14.3896 8.75657C14.905 8.9591 15.2885 9.37608 15.4563 9.87049L15.5223 9.53095Z" fill="#4B545A"/>
<path id="Vector_28" d="M13.239 0.780245C13.239 0.786202 13.2151 0.798115 13.1491 0.798115L6.85674 0.798115C6.79082 0.798115 6.76685 0.780245 6.76685 0.780245C6.76685 0.774288 6.77883 0.738547 6.85074 0.690893L6.90468 0.655152C7.2223 0.43475 7.45601 0.273916 7.84554 0.119039C8.23507 0.0594707 8.64857 0.0237298 9.09204 0.00585937L10.9078 0.00585937C11.3513 0.0237298 11.7648 0.0594707 12.1543 0.119039C12.1543 0.119039 12.1543 0.119039 12.1603 0.119039C12.5499 0.273916 12.7836 0.43475 13.1012 0.655152L13.1551 0.690893C13.227 0.738547 13.239 0.774288 13.239 0.780245Z" fill="#EFEEF7" fill-opacity="0.85"/>
<path id="Rectangle" d="M5.1014 25H14.9141C14.9141 25 15.0743 25.7852 14.6585 26.6355C13.7447 28.5046 6.00717 28.4044 5.30653 26.6355C4.95608 25.7506 5.1014 25 5.1014 25Z" fill="white"/>
</g>
<defs>
<filter id="filter0_d_433_2885" x="0" y="0" width="20" height="36" filterUnits="userSpaceOnUse" color-interpolation-filters="sRGB">
<feFlood flood-opacity="0" result="BackgroundImageFix"/>
<feColorMatrix in="SourceAlpha" type="matrix" values="0 0 0 0 0 0 0 0 0 0 0 0 0 0 0 0 0 0 127 0" result="hardAlpha"/>
<feOffset dy="2"/>
<feGaussianBlur stdDeviation="1"/>
<feColorMatrix type="matrix" values="0 0 0 0 0 0 0 0 0 0 0 0 0 0 0 0 0 0 0.3 0"/>
<feBlend mode="normal" in2="BackgroundImageFix" result="effect1_dropShadow_433_2885"/>
<feBlend mode="normal" in="SourceGraphic" in2="effect1_dropShadow_433_2885" result="shape"/>
</filter>
<radialGradient id="paint0_radial_433_2885" cx="0" cy="0" r="1" gradientUnits="userSpaceOnUse" gradientTransform="translate(10.2727 24.9592) rotate(90) scale(5.09307 16.93)">
<stop stop-color="white" stop-opacity="0.8"/>
<stop offset="1" stop-color="white" stop-opacity="0.01"/>
</radialGradient>
<radialGradient id="paint1_radial_433_2885" cx="0" cy="0" r="1" gradientUnits="userSpaceOnUse" gradientTransform="translate(4.46411 27.071) rotate(90.0336) scale(17.4427 2.23024)">
<stop stop-color="white" stop-opacity="0.8"/>
<stop offset="1" stop-color="white" stop-opacity="0.01"/>
</radialGradient>
<radialGradient id="paint2_radial_433_2885" cx="0" cy="0" r="1" gradientUnits="userSpaceOnUse" gradientTransform="translate(15.561 27.071) rotate(90.0336) scale(17.4427 2.23457)">
<stop stop-color="white" stop-opacity="0.8"/>
<stop offset="1" stop-color="white" stop-opacity="0.01"/>
</radialGradient>
<linearGradient id="paint3_linear_433_2885" x1="3.91779" y1="2.64177" x2="6.26028" y2="2.64177" gradientUnits="userSpaceOnUse">
<stop offset="0.1548" stop-color="#A1A1A1"/>
<stop offset="0.9205" stop-color="white"/>
</linearGradient>
<linearGradient id="paint4_linear_433_2885" x1="3.91779" y1="2.64177" x2="6.26028" y2="2.64177" gradientUnits="userSpaceOnUse">
<stop stop-color="#333333"/>
<stop offset="0.1883"/>
<stop offset="0.3849" stop-color="#333333"/>
<stop offset="0.5983"/>
<stop offset="0.8033" stop-color="#333333"/>
<stop offset="1"/>
</linearGradient>
<linearGradient id="paint5_linear_433_2885" x1="16.0323" y1="2.64177" x2="13.6898" y2="2.64177" gradientUnits="userSpaceOnUse">
<stop offset="0.1548" stop-color="#A1A1A1"/>
<stop offset="0.9205" stop-color="white"/>
</linearGradient>
<radialGradient id="paint6_radial_433_2885" cx="0" cy="0" r="1" gradientUnits="userSpaceOnUse" gradientTransform="translate(10.0465 14.8981) rotate(90.6579) scale(6.90848 17.3076)">
<stop stop-color="white" stop-opacity="0.8"/>
<stop offset="1" stop-color="white" stop-opacity="0.01"/>
</radialGradient>
</defs>
</svg>
