<svg width="25" height="18" viewBox="0 0 25 18" fill="none" xmlns="http://www.w3.org/2000/svg">
<path d="M0.5 3C0.5 2.20435 0.816071 1.44129 1.37868 0.87868C1.94129 0.31607 2.70435 0 3.5 0H21.5C22.2956 0 23.0587 0.31607 23.6213 0.87868C24.1839 1.44129 24.5 2.20435 24.5 3V15C24.5 15.7956 24.1839 16.5587 23.6213 17.1213C23.0587 17.6839 22.2956 18 21.5 18H3.5C2.70435 18 1.94129 17.6839 1.37868 17.1213C0.816071 16.5587 0.5 15.7956 0.5 15V3ZM4.25 4.5C4.05109 4.5 3.86032 4.57902 3.71967 4.71967C3.57902 4.86032 3.5 5.05109 3.5 5.25V6.75C3.5 6.94891 3.57902 7.13968 3.71967 7.28033C3.86032 7.42098 4.05109 7.5 4.25 7.5H7.25C7.44891 7.5 7.63968 7.42098 7.78033 7.28033C7.92098 7.13968 8 6.94891 8 6.75V5.25C8 5.05109 7.92098 4.86032 7.78033 4.71967C7.63968 4.57902 7.44891 4.5 7.25 4.5H4.25ZM4.25 9C4.05109 9 3.86032 9.07902 3.71967 9.21967C3.57902 9.36032 3.5 9.55109 3.5 9.75C3.5 9.94891 3.57902 10.1397 3.71967 10.2803C3.86032 10.421 4.05109 10.5 4.25 10.5H11.75C11.9489 10.5 12.1397 10.421 12.2803 10.2803C12.421 10.1397 12.5 9.94891 12.5 9.75C12.5 9.55109 12.421 9.36032 12.2803 9.21967C12.1397 9.07902 11.9489 9 11.75 9H4.25ZM4.25 12C4.05109 12 3.86032 12.079 3.71967 12.2197C3.57902 12.3603 3.5 12.5511 3.5 12.75C3.5 12.9489 3.57902 13.1397 3.71967 13.2803C3.86032 13.421 4.05109 13.5 4.25 13.5H5.75C5.94891 13.5 6.13968 13.421 6.28033 13.2803C6.42098 13.1397 6.5 12.9489 6.5 12.75C6.5 12.5511 6.42098 12.3603 6.28033 12.2197C6.13968 12.079 5.94891 12 5.75 12H4.25ZM8.75 12C8.55109 12 8.36032 12.079 8.21967 12.2197C8.07902 12.3603 8 12.5511 8 12.75C8 12.9489 8.07902 13.1397 8.21967 13.2803C8.36032 13.421 8.55109 13.5 8.75 13.5H10.25C10.4489 13.5 10.6397 13.421 10.7803 13.2803C10.921 13.1397 11 12.9489 11 12.75C11 12.5511 10.921 12.3603 10.7803 12.2197C10.6397 12.079 10.4489 12 10.25 12H8.75ZM13.25 12C13.0511 12 12.8603 12.079 12.7197 12.2197C12.579 12.3603 12.5 12.5511 12.5 12.75C12.5 12.9489 12.579 13.1397 12.7197 13.2803C12.8603 13.421 13.0511 13.5 13.25 13.5H14.75C14.9489 13.5 15.1397 13.421 15.2803 13.2803C15.421 13.1397 15.5 12.9489 15.5 12.75C15.5 12.5511 15.421 12.3603 15.2803 12.2197C15.1397 12.079 14.9489 12 14.75 12H13.25ZM17.75 12C17.5511 12 17.3603 12.079 17.2197 12.2197C17.079 12.3603 17 12.5511 17 12.75C17 12.9489 17.079 13.1397 17.2197 13.2803C17.3603 13.421 17.5511 13.5 17.75 13.5H19.25C19.4489 13.5 19.6397 13.421 19.7803 13.2803C19.921 13.1397 20 12.9489 20 12.75C20 12.5511 19.921 12.3603 19.7803 12.2197C19.6397 12.079 19.4489 12 19.25 12H17.75Z" fill="white"/>
</svg>
