<svg width="19" height="14" viewBox="0 0 19 14" fill="none" xmlns="http://www.w3.org/2000/svg">
<path d="M18.0778 4.1875H15.973L15.388 2.725C14.7868 1.22137 13.3521 0.25 11.7324 0.25H7.26759C5.64829 0.25 4.21321 1.22137 3.61169 2.725L3.02669 4.1875H0.922234C0.647664 4.1875 0.446219 4.44555 0.513015 4.71168L0.723953 5.55543C0.770711 5.74316 0.939461 5.875 1.13317 5.875H1.83876C1.36661 6.28738 1.06251 6.8868 1.06251 7.5625V9.25C1.06251 9.81672 1.27907 10.3282 1.62501 10.7241V12.625C1.62501 13.2462 2.1288 13.75 2.75001 13.75H3.87501C4.49622 13.75 5.00001 13.2462 5.00001 12.625V11.5H14V12.625C14 13.2462 14.5038 13.75 15.125 13.75H16.25C16.8712 13.75 17.375 13.2462 17.375 12.625V10.7241C17.7209 10.3286 17.9375 9.81707 17.9375 9.25V7.5625C17.9375 6.8868 17.6334 6.28738 17.1616 5.875H17.8672C18.0609 5.875 18.2297 5.74316 18.2764 5.55543L18.4874 4.71168C18.5538 4.44555 18.3524 4.1875 18.0778 4.1875ZM5.70067 3.56066C5.95696 2.92012 6.57747 2.5 7.26759 2.5H11.7324C12.4225 2.5 13.0431 2.92012 13.2993 3.56066L14 5.3125H5.00001L5.70067 3.56066ZM3.87501 9.24297C3.20001 9.24297 2.75001 8.79437 2.75001 8.12148C2.75001 7.44859 3.20001 7 3.87501 7C4.55001 7 5.56251 8.00934 5.56251 8.68223C5.56251 9.35512 4.55001 9.24297 3.87501 9.24297ZM15.125 9.24297C14.45 9.24297 13.4375 9.35512 13.4375 8.68223C13.4375 8.00934 14.45 7 15.125 7C15.8 7 16.25 7.44859 16.25 8.12148C16.25 8.79437 15.8 9.24297 15.125 9.24297V9.24297Z" fill="white"/>
</svg>
