<svg width="27" height="22" viewBox="0 0 27 22" fill="none" xmlns="http://www.w3.org/2000/svg">
<path d="M17.508 7.67438H22.2541V10.2325H17.508V7.67438Z" fill="white"/>
<path d="M4.74609 11.7674H9.49219V14.3255H4.74609V11.7674Z" fill="white"/>
<path d="M4.74609 7.67438H9.49219V10.2325H4.74609V7.67438Z" fill="white"/>
<path d="M11.0742 8.69757H15.9258V13.3022H11.0742V8.69757Z" fill="white"/>
<path d="M17.508 11.7674H22.2541V14.3255H17.508V11.7674Z" fill="white"/>
<path d="M10.2832 6.1395C10.7201 6.1395 11.0742 6.48311 11.0742 6.90694V7.16275H12.709V5.37206C12.709 5.16848 12.7923 4.97329 12.9407 4.82942L13.1724 4.60461H4.74609V6.1395H10.2832Z" fill="white"/>
<path d="M14.2908 5.68993V7.16275H15.9256V6.90694C15.9256 6.48311 16.2798 6.1395 16.7166 6.1395H22.2537V4.60461H15.4095L14.2908 5.68993Z" fill="white"/>
<path d="M16.7168 15.8605C16.2799 15.8605 15.9258 15.5169 15.9258 15.093V14.8372H14.291V16.6279C14.291 16.8315 14.2077 17.0267 14.0593 17.1705L13.8276 17.3954H22.2539V15.8605H16.7168Z" fill="white"/>
<path d="M12.709 16.31V14.8372H11.0742V15.093C11.0742 15.5169 10.7201 15.8605 10.2832 15.8605H4.74609V17.3954H11.5903L12.709 16.31Z" fill="white"/>
<path d="M23.0449 0H3.95508C1.77425 0 0 1.72137 0 3.83721V18.1628C0 20.2786 1.77425 22 3.95508 22H23.0449C25.2258 22 27 20.2786 27 18.1628V3.83721C27 1.72137 25.2258 0 23.0449 0ZM23.8359 18.1628C23.8359 18.5866 23.4818 18.9302 23.0449 18.9302H3.95508C3.51823 18.9302 3.16406 18.5866 3.16406 18.1628V3.83721C3.16406 3.41338 3.51823 3.06977 3.95508 3.06977H23.0449C23.4818 3.06977 23.8359 3.41338 23.8359 3.83721V18.1628Z" fill="white"/>
</svg>
