<svg width="16" height="16" viewBox="0 0 16 16" fill="none" xmlns="http://www.w3.org/2000/svg">
<g id="car-01">
<path id="Icon" d="M3.8335 8.66669H5.8335M1.8335 6.00002L3.16683 6.66669L4.01392 4.1254C4.18877 3.60085 4.2762 3.33858 4.43835 3.14467C4.58155 2.97344 4.76544 2.8409 4.97317 2.7592C5.2084 2.66669 5.48486 2.66669 6.03778 2.66669H10.9625C11.5155 2.66669 11.7919 2.66669 12.0272 2.7592C12.2349 2.8409 12.4188 2.97344 12.562 3.14467C12.7241 3.33858 12.8116 3.60085 12.9864 4.1254L13.8335 6.66669L15.1668 6.00002M11.1668 8.66669H13.1668M5.0335 6.66669H11.9668C13.0869 6.66669 13.647 6.66669 14.0748 6.88467C14.4511 7.07642 14.7571 7.38238 14.9488 7.75871C15.1668 8.18653 15.1668 8.74658 15.1668 9.86669V11.6667C15.1668 11.9765 15.1668 12.1313 15.1412 12.2601C15.036 12.7891 14.6225 13.2025 14.0936 13.3077C13.9648 13.3334 13.8099 13.3334 13.5002 13.3334H13.1668C12.4304 13.3334 11.8335 12.7364 11.8335 12C11.8335 11.8159 11.6843 11.6667 11.5002 11.6667H5.50016C5.31607 11.6667 5.16683 11.8159 5.16683 12C5.16683 12.7364 4.56988 13.3334 3.8335 13.3334H3.50016C3.19039 13.3334 3.03551 13.3334 2.90671 13.3077C2.37779 13.2025 1.96432 12.7891 1.85912 12.2601C1.8335 12.1313 1.8335 11.9765 1.8335 11.6667V9.86669C1.8335 8.74658 1.8335 8.18653 2.05148 7.75871C2.24323 7.38238 2.54919 7.07642 2.92552 6.88467C3.35334 6.66669 3.91339 6.66669 5.0335 6.66669Z" stroke="#DC6803" stroke-linecap="round" stroke-linejoin="round"/>
</g>
</svg>
