<svg width="28" height="16" viewBox="0 0 28 16" fill="none" xmlns="http://www.w3.org/2000/svg">
<g id="Car" filter="url(#filter0_d_1476_2205)">
<path id="color" d="M21.276 0.768634L22.1341 0.823397C22.9073 0.873596 23.6581 1.12003 24.2972 1.5627C25.4637 2.37502 25.933 3.56155 26 5.3094V6.69217C25.933 8.43546 25.4637 9.62656 24.2972 10.4343C23.6581 10.877 22.9073 11.1234 22.1341 11.1736L21.276 11.2284C20.7218 11.2649 20.1631 11.2558 19.6089 11.1964L19.4838 11.1827H5.52626C4.71285 11.1462 4.28827 10.9956 3.61788 10.7309C2.5095 10.2426 2.01341 9.22496 2 6.48225V5.5102C2.01341 2.76749 2.51397 1.7498 3.61788 1.2615C4.28827 0.996813 4.71285 0.850779 5.52626 0.809706H19.4793L19.6045 0.796015C20.1587 0.745816 20.7173 0.736689 21.276 0.768634ZM18.8492 1.79544L15.8101 2.4024C15.6045 2.44347 15.3989 2.47998 15.1933 2.51192C15.7564 5.19988 15.8145 6.81995 15.1933 9.53985C15.3989 9.5718 15.6045 9.6083 15.8101 9.64938L18.8492 10.2563C19.5061 10.3887 20.1631 10.0282 20.4089 9.39382C20.7352 8.55412 20.8782 7.58207 20.914 6.28145V5.77945C20.8782 4.47883 20.7307 3.50222 20.4045 2.66709C20.1631 2.02362 19.5061 1.6631 18.8492 1.79544Z" fill="url(#paint0_linear_1476_2205)"/>
<g id="lines">
<path id="Vector" d="M25.3389 8.46999L20.5585 8.89697V8.84304L25.3121 8.24526C25.3121 8.34863 25.3076 8.42504 25.3389 8.46999Z" fill="#E7E7E7"/>
<path id="Vector_2" d="M25.3389 3.53074L20.5585 3.10376V3.1577L25.3121 3.75098C25.3121 3.6521 25.3076 3.57569 25.3389 3.53074Z" fill="#E7E7E7"/>
</g>
<g id="window">
<path id="Vector_3" d="M6.35147 2.15492C5.81535 2.15492 5.38199 2.21335 5.03352 2.34819C5.06926 2.35718 5.105 2.37515 5.14074 2.39763C5.01565 2.44707 4.89949 2.501 4.7878 2.55494C4.43486 2.73472 4.17574 3.05383 4.05065 3.43138C3.85854 4.02466 3.78706 4.58199 3.73345 5.35056C3.72004 5.54383 3.71558 5.7326 3.71558 5.92586V6.05171C3.71558 6.24048 3.72004 6.42925 3.73345 6.61353C3.78706 7.3866 3.85854 7.94392 4.05065 8.5417C4.17127 8.91925 4.43486 9.23387 4.7878 9.41814C4.89949 9.47657 5.01565 9.52601 5.14521 9.57995C5.11841 9.59793 5.0916 9.61141 5.06033 9.62489C5.40433 9.76422 5.82876 9.82715 6.35147 9.82715C6.57931 9.82715 6.81163 9.81366 7.04395 9.79119V2.19537C6.80716 2.16391 6.57931 2.15492 6.35147 2.15492Z" fill="#4B545A"/>
<g id="Vector_4">
<path d="M6.35147 2.15492C5.81535 2.15492 5.38199 2.21335 5.03352 2.34819C5.06926 2.35718 5.105 2.37515 5.14074 2.39763C5.01565 2.44707 4.89949 2.501 4.7878 2.55494C4.43486 2.73472 4.17574 3.05383 4.05065 3.43138C3.85854 4.02466 3.78706 4.58199 3.73345 5.35056C3.72004 5.54383 3.71558 5.7326 3.71558 5.92586V6.05171C3.71558 6.24048 3.72004 6.42925 3.73345 6.61353C3.78706 7.3866 3.85854 7.94392 4.05065 8.5417C4.17127 8.91925 4.43486 9.23387 4.7878 9.41814C4.89949 9.47657 5.01565 9.52601 5.14521 9.57995C5.11841 9.59793 5.0916 9.61141 5.06033 9.62489C5.40433 9.76422 5.82876 9.82715 6.35147 9.82715C6.57931 9.82715 6.81163 9.81366 7.04395 9.79119V2.19537C6.80716 2.16391 6.57931 2.15492 6.35147 2.15492Z" fill="#4388FC" fill-opacity="0.1"/>
<path d="M6.35147 2.15492C5.81535 2.15492 5.38199 2.21335 5.03352 2.34819C5.06926 2.35718 5.105 2.37515 5.14074 2.39763C5.01565 2.44707 4.89949 2.501 4.7878 2.55494C4.43486 2.73472 4.17574 3.05383 4.05065 3.43138C3.85854 4.02466 3.78706 4.58199 3.73345 5.35056C3.72004 5.54383 3.71558 5.7326 3.71558 5.92586V6.05171C3.71558 6.24048 3.72004 6.42925 3.73345 6.61353C3.78706 7.3866 3.85854 7.94392 4.05065 8.5417C4.17127 8.91925 4.43486 9.23387 4.7878 9.41814C4.89949 9.47657 5.01565 9.52601 5.14521 9.57995C5.11841 9.59793 5.0916 9.61141 5.06033 9.62489C5.40433 9.76422 5.82876 9.82715 6.35147 9.82715C6.57931 9.82715 6.81163 9.81366 7.04395 9.79119V2.19537C6.80716 2.16391 6.57931 2.15492 6.35147 2.15492Z" fill="url(#paint1_radial_1476_2205)"/>
</g>
</g>
<g id="window_2">
<path id="Vector_5" d="M8.2099 9.65668C7.79888 9.66567 7.37446 9.67466 6.90536 9.68365C6.86962 9.68365 6.83388 9.69264 6.80261 9.71061C6.65964 9.78702 6.6105 9.89489 6.64177 10.0657C6.71772 10.3129 6.94557 10.4387 7.34765 10.4477L18.5748 10.6904C18.5837 10.6904 18.5926 10.6904 18.6016 10.6904C18.5971 10.6859 18.5882 10.6814 18.5792 10.6769L18.329 10.5466C18.2754 10.5196 18.2173 10.4972 18.1548 10.4837L16.2248 10.1151C14.8577 9.85444 13.647 9.71511 12.5122 9.69713C10.7743 9.60274 9.58593 9.62522 8.2099 9.65668Z" fill="#4B545A"/>
<g id="Vector_6">
<path d="M8.2099 9.65668C7.79888 9.66567 7.37446 9.67466 6.90536 9.68365C6.86962 9.68365 6.83388 9.69264 6.8026 9.71061C6.65964 9.78702 6.6105 9.89489 6.64177 10.0657C6.71772 10.3129 6.94557 10.4387 7.34765 10.4477L18.5748 10.6904C18.5837 10.6904 18.5926 10.6904 18.6016 10.6904C18.5971 10.6859 18.5882 10.6814 18.5792 10.6769L18.329 10.5466C18.2754 10.5196 18.2173 10.4972 18.1548 10.4837L16.2248 10.1151C14.8577 9.85444 13.647 9.71511 12.5122 9.69713C10.7743 9.60274 9.58592 9.62522 8.2099 9.65668Z" fill="#4388FC" fill-opacity="0.1"/>
<path d="M8.2099 9.65668C7.79888 9.66567 7.37446 9.67466 6.90536 9.68365C6.86962 9.68365 6.83388 9.69264 6.8026 9.71061C6.65964 9.78702 6.6105 9.89489 6.64177 10.0657C6.71772 10.3129 6.94557 10.4387 7.34765 10.4477L18.5748 10.6904C18.5837 10.6904 18.5926 10.6904 18.6016 10.6904C18.5971 10.6859 18.5882 10.6814 18.5792 10.6769L18.329 10.5466C18.2754 10.5196 18.2173 10.4972 18.1548 10.4837L16.2248 10.1151C14.8577 9.85444 13.647 9.71511 12.5122 9.69713C10.7743 9.60274 9.58592 9.62522 8.2099 9.65668Z" fill="url(#paint2_radial_1476_2205)"/>
</g>
<path id="Vector_7" d="M11.7841 10.5419C11.6232 10.2497 11.5652 10.034 11.5205 9.65196L12.204 9.67892C12.3872 10.0205 12.5659 10.2722 12.8652 10.5688L11.7841 10.5419Z" fill="#4B545A"/>
<path id="Vector_8" d="M17.1987 10.2995L17.2926 10.6591L18.5748 10.686C18.5837 10.686 18.5926 10.686 18.6016 10.686C18.5971 10.6815 18.5882 10.677 18.5792 10.6726L18.329 10.5422C18.2754 10.5152 18.2173 10.4928 18.1548 10.4793L17.1987 10.2995Z" fill="#4B545A"/>
</g>
<g id="window_3">
<path id="Vector_9" d="M8.2099 2.33938C7.79888 2.33039 7.37446 2.3214 6.90536 2.31241C6.86962 2.31241 6.83388 2.30342 6.80261 2.28544C6.65964 2.20903 6.6105 2.10116 6.64177 1.93037C6.71772 1.68317 6.94557 1.55732 7.34765 1.54833L18.5748 1.30563C18.5837 1.30563 18.5926 1.30563 18.6016 1.30563C18.5971 1.31012 18.5882 1.31462 18.5792 1.31911L18.329 1.44945C18.2754 1.47642 18.2173 1.49889 18.1548 1.51238L16.2159 1.88543C14.8488 2.14611 13.638 2.28544 12.5033 2.30342C10.7743 2.39781 9.58593 2.37084 8.2099 2.33938Z" fill="#4B545A"/>
<g id="Vector_10">
<path d="M8.2099 2.33938C7.79888 2.33039 7.37446 2.3214 6.90536 2.31241C6.86962 2.31241 6.83388 2.30342 6.8026 2.28544C6.65964 2.20903 6.6105 2.10116 6.64177 1.93037C6.71772 1.68317 6.94557 1.55732 7.34765 1.54833L18.5748 1.30563C18.5837 1.30563 18.5926 1.30563 18.6016 1.30563C18.5971 1.31012 18.5882 1.31462 18.5792 1.31911L18.329 1.44945C18.2754 1.47642 18.2173 1.49889 18.1548 1.51238L16.2159 1.88543C14.8488 2.14611 13.638 2.28544 12.5033 2.30342C10.7743 2.39781 9.58592 2.37084 8.2099 2.33938Z" fill="#4388FC" fill-opacity="0.1"/>
<path d="M8.2099 2.33938C7.79888 2.33039 7.37446 2.3214 6.90536 2.31241C6.86962 2.31241 6.83388 2.30342 6.8026 2.28544C6.65964 2.20903 6.6105 2.10116 6.64177 1.93037C6.71772 1.68317 6.94557 1.55732 7.34765 1.54833L18.5748 1.30563C18.5837 1.30563 18.5926 1.30563 18.6016 1.30563C18.5971 1.31012 18.5882 1.31462 18.5792 1.31911L18.329 1.44945C18.2754 1.47642 18.2173 1.49889 18.1548 1.51238L16.2159 1.88543C14.8488 2.14611 13.638 2.28544 12.5033 2.30342C10.7743 2.39781 9.58592 2.37084 8.2099 2.33938Z" fill="url(#paint3_radial_1476_2205)"/>
</g>
<path id="Vector_11" d="M11.7797 1.45383C11.6188 1.74597 11.5608 1.96171 11.5161 2.34375L12.1996 2.31678C12.3828 1.9752 12.5615 1.7235 12.8608 1.42686L11.7797 1.45383Z" fill="#4B545A"/>
<path id="Vector_12" d="M17.1943 1.69727L17.2882 1.3377L18.5704 1.31073C18.5793 1.31073 18.5882 1.31073 18.5972 1.31073C18.5927 1.31523 18.5838 1.31972 18.5748 1.32422L18.3246 1.45456C18.271 1.48153 18.213 1.504 18.1504 1.51748L17.1943 1.69727Z" fill="#4B545A"/>
</g>
<g id="mirror ">
<path id="Vector_13" d="M17.9585 10.5371C17.8513 10.5101 17.7887 10.5146 17.686 10.5371V10.9102H17.9585V10.5371Z" fill="#594F4F"/>
<path id="Vector_14" d="M17.8826 10.8474L17.5073 10.8519C17.4671 10.8519 17.4313 10.8789 17.4179 10.9193L17.0963 11.8901C17.0873 11.9216 17.1052 11.9576 17.1365 11.9665C17.1856 11.98 17.2392 11.9935 17.3063 11.998C17.3509 12.0025 17.3956 11.998 17.4313 11.998C17.5252 11.989 17.6145 11.9531 17.686 11.8946C17.7485 11.8407 17.8111 11.7733 17.8602 11.6699C17.9228 11.5396 17.9585 11.3643 17.963 11.189C17.9675 11.1081 17.963 11.0047 17.9585 10.9238C17.9585 10.8789 17.9228 10.8474 17.8826 10.8474Z" fill="#594F4F"/>
</g>
<g id="mirror _2">
<path id="Vector_15" d="M17.958 1.46287C17.8508 1.48983 17.7882 1.48534 17.6855 1.46287V1.08982H17.958V1.46287Z" fill="#594F4F"/>
<path id="Vector_16" d="M17.8782 1.15283L17.5029 1.14834C17.4627 1.14834 17.427 1.12137 17.4135 1.08092L17.0919 0.110093C17.0829 0.0786314 17.1008 0.0426744 17.1321 0.0336852C17.1812 0.0202016 17.2348 0.00671865 17.3019 0.00222411C17.3465 -0.00227044 17.3912 0.00222411 17.427 0.00222411C17.5208 0.0112133 17.6101 0.0471692 17.6816 0.105599C17.7442 0.159533 17.8067 0.226952 17.8558 0.330327C17.9184 0.460669 17.9541 0.635958 17.9586 0.811246C17.9631 0.892148 17.9586 0.995522 17.9541 1.07642C17.9541 1.12137 17.9229 1.15283 17.8782 1.15283Z" fill="#594F4F"/>
</g>
<g id="light">
<path id="Vector_17" d="M25.1777 8.80708C24.6014 9.75543 23.9268 10.2903 22.8546 10.5645H23.3907C23.7079 10.5645 24.0117 10.4566 24.2529 10.2498C24.7176 9.84532 25.0214 9.4498 25.1777 8.80708Z" fill="url(#paint4_linear_1476_2205)"/>
<path id="Vector_18" d="M25.1777 8.80708C24.6014 9.75543 23.9268 10.2903 22.8546 10.5645H23.3907C23.7079 10.5645 24.0117 10.4566 24.2529 10.2498C24.7176 9.84532 25.0214 9.4498 25.1777 8.80708Z" fill="url(#paint5_linear_1476_2205)"/>
<path id="Vector_19" d="M22.859 10.5601H23.3907C23.7079 10.5601 24.0117 10.4522 24.2529 10.2454C24.7176 9.84542 25.0214 9.4499 25.1777 8.80718C24.6014 9.75553 23.9313 10.2904 22.859 10.5601Z" fill="white"/>
</g>
<g id="light_2">
<path id="Vector_20" d="M25.1782 3.2334C24.6019 2.28504 23.9273 1.75019 22.8551 1.47602H23.3912C23.7084 1.47602 24.0122 1.58389 24.2534 1.79064C24.7181 2.19066 25.0219 2.59067 25.1782 3.2334Z" fill="url(#paint6_linear_1476_2205)"/>
<path id="Vector_21" d="M22.8595 1.47602H23.3911C23.7083 1.47602 24.0121 1.58389 24.2534 1.79064C24.7225 2.19066 25.0263 2.59067 25.1826 3.2334C24.6018 2.28504 23.9317 1.75019 22.8595 1.47602Z" fill="white"/>
</g>
<g id="light_3">
<path id="Vector_22" d="M2.24146 8.91058C2.49164 9.87692 2.94287 10.3668 3.62195 10.6635C3.81852 10.7399 3.99722 10.8073 4.16699 10.8657L4.14019 10.7758C4.04637 10.4747 3.82745 10.232 3.54153 10.1061C3.0769 9.90388 2.87586 9.69264 2.56312 9.08138C2.50058 8.96002 2.37102 8.89261 2.24146 8.91058Z" fill="#D8394C"/>
</g>
<g id="light_4">
<path id="Vector_23" d="M2.24097 3.0899C2.49115 2.12357 2.94238 1.63366 3.62146 1.33702C3.81803 1.26061 3.99673 1.19319 4.1665 1.13476L4.1397 1.22465C4.04588 1.52579 3.82697 1.76849 3.54104 1.89434C3.07641 2.0966 2.87537 2.30784 2.56264 2.9191C2.50009 3.04046 2.37053 3.10788 2.24097 3.0899Z" fill="#D8394C"/>
</g>
<path id="Vector_24" d="M19.8257 5.77748C19.79 4.46506 19.6336 3.53019 19.3254 2.75263C19.1913 2.41554 18.9233 2.15485 18.5882 2.02901L15.8362 2.57285C15.6709 2.60431 15.5011 2.63577 15.3358 2.66274C15.6307 4.07853 15.7557 5.11228 15.7557 6.09659C15.7557 7.09438 15.6262 8.11915 15.3358 9.39111C15.5011 9.41808 15.6709 9.44504 15.8362 9.481L18.5882 10.0203C18.9233 9.8945 19.1913 9.63382 19.3254 9.29672C19.6336 8.51467 19.7855 7.58429 19.8257 6.27188V5.77748ZM19.9419 5.77748V6.27188C19.9062 7.55283 19.7587 8.51467 19.4371 9.33717C19.2852 9.72371 18.9724 10.0114 18.6016 10.1372L15.8138 9.58887C15.6083 9.54842 15.4028 9.51246 15.1973 9.481C15.5011 8.17308 15.6396 7.12585 15.6396 6.0876C15.6396 4.99542 15.4832 3.91672 15.1973 2.55487C15.4028 2.52341 15.6083 2.48745 15.8138 2.447L18.5971 1.89866C18.968 2.02901 19.2807 2.31216 19.4326 2.6987C19.7587 3.53469 19.9062 4.49652 19.9419 5.77748Z" fill="#1D1F24"/>
<path id="Vector_25" d="M18.5972 1.90755L15.8139 2.45589C15.6084 2.49634 15.4029 2.5323 15.1974 2.56376C15.7603 5.21106 15.8184 6.80663 15.1974 9.48539C15.4029 9.51686 15.6084 9.55281 15.8139 9.59326L18.5972 10.1416C18.968 10.0113 19.2808 9.7281 19.4327 9.34157C19.7588 8.51457 19.9018 7.55722 19.9375 6.27627V5.78187C19.9018 4.50092 19.7543 3.53908 19.4282 2.71657C19.2808 2.32105 18.968 2.03789 18.5972 1.90755Z" fill="#4B545A"/>
<g id="Vector_26">
<path d="M18.5972 1.90755L15.8139 2.45589C15.6084 2.49634 15.4029 2.53229 15.1974 2.56376C15.7603 5.21106 15.8184 6.80663 15.1974 9.48539C15.4029 9.51686 15.6084 9.55281 15.8139 9.59326L18.5972 10.1416C18.968 10.0113 19.2808 9.7281 19.4327 9.34157C19.7588 8.51457 19.9018 7.55722 19.9375 6.27627V5.78187C19.9018 4.50092 19.7543 3.53908 19.4282 2.71657C19.2808 2.32105 18.968 2.03789 18.5972 1.90755Z" fill="#4388FC" fill-opacity="0.1"/>
<path d="M18.5972 1.90755L15.8139 2.45589C15.6084 2.49634 15.4029 2.53229 15.1974 2.56376C15.7603 5.21106 15.8184 6.80663 15.1974 9.48539C15.4029 9.51686 15.6084 9.55281 15.8139 9.59326L18.5972 10.1416C18.968 10.0113 19.2808 9.7281 19.4327 9.34157C19.7588 8.51457 19.9018 7.55722 19.9375 6.27627V5.78187C19.9018 4.50092 19.7543 3.53908 19.4282 2.71657C19.2808 2.32105 18.968 2.03789 18.5972 1.90755Z" fill="url(#paint7_radial_1476_2205)"/>
</g>
<path id="Vector_27" d="M18.8519 1.85825C19.5086 1.72791 20.1654 2.08298 20.4111 2.70772C20.7372 3.53472 20.8802 4.49206 20.9204 5.77302V6.26742C20.8847 7.54837 20.7372 8.51021 20.4156 9.33271C20.1699 9.95746 19.5131 10.3125 18.8564 10.1822L18.6017 10.1327C18.9725 10.0024 19.2853 9.71925 19.4372 9.33271C19.7633 8.50571 19.9063 7.54837 19.942 6.26742V5.77302C19.9063 4.49206 19.7588 3.53023 19.4327 2.70772C19.2808 2.32119 18.9681 2.03354 18.5973 1.90769L18.8519 1.85825Z" fill="#4B545A"/>
<path id="Vector_28" d="M25.4148 3.57067C25.4103 3.57067 25.4014 3.58865 25.4014 3.63809V8.35739C25.4014 8.40683 25.4148 8.4248 25.4148 8.4248C25.4193 8.4248 25.4461 8.41582 25.4818 8.36188L25.5086 8.32143C25.6739 8.08322 25.7946 7.90793 25.9107 7.61578C25.9554 7.32364 25.9822 7.01351 25.9956 6.68091V5.31906C25.9822 4.98646 25.9554 4.67633 25.9107 4.38419C25.9107 4.38419 25.9107 4.38419 25.9107 4.37969C25.7946 4.08755 25.6739 3.91226 25.5086 3.67405L25.4818 3.63359C25.4461 3.57966 25.4193 3.57067 25.4148 3.57067Z" fill="white"/>
<path id="Rectangle" d="M7.25 9.67389V2.31439C7.25 2.31439 6.66108 2.19425 6.0234 2.50603C4.62158 3.19144 4.69667 8.99456 6.0234 9.52004C6.68702 9.78288 7.25 9.67389 7.25 9.67389Z" fill="url(#paint8_linear_1476_2205)"/>
</g>
<defs>
<filter id="filter0_d_1476_2205" x="0" y="0" width="28" height="16" filterUnits="userSpaceOnUse" color-interpolation-filters="sRGB">
<feFlood flood-opacity="0" result="BackgroundImageFix"/>
<feColorMatrix in="SourceAlpha" type="matrix" values="0 0 0 0 0 0 0 0 0 0 0 0 0 0 0 0 0 0 127 0" result="hardAlpha"/>
<feOffset dy="2"/>
<feGaussianBlur stdDeviation="1"/>
<feColorMatrix type="matrix" values="0 0 0 0 0 0 0 0 0 0 0 0 0 0 0 0 0 0 0.25 0"/>
<feBlend mode="normal" in2="BackgroundImageFix" result="effect1_dropShadow_1476_2205"/>
<feBlend mode="normal" in="SourceGraphic" in2="effect1_dropShadow_1476_2205" result="shape"/>
</filter>
<linearGradient id="paint0_linear_1476_2205" x1="21" y1="2.67661" x2="20.9188" y2="9.32947" gradientUnits="userSpaceOnUse">
<stop stop-color="#FFD177"/>
<stop offset="0.307292" stop-color="#FFA2A3"/>
<stop offset="0.979167" stop-color="#D18FE9"/>
<stop offset="1" stop-color="#D18FE9"/>
</linearGradient>
<radialGradient id="paint1_radial_1476_2205" cx="0" cy="0" r="1" gradientUnits="userSpaceOnUse" gradientTransform="translate(7.28072 5.79552) rotate(-180) scale(3.81981 12.6975)">
<stop stop-color="white" stop-opacity="0.8"/>
<stop offset="1" stop-color="white" stop-opacity="0.01"/>
</radialGradient>
<radialGradient id="paint2_radial_1476_2205" cx="0" cy="0" r="1" gradientUnits="userSpaceOnUse" gradientTransform="translate(5.6965 10.1523) rotate(179.966) scale(13.0821 1.67268)">
<stop stop-color="white" stop-opacity="0.8"/>
<stop offset="1" stop-color="white" stop-opacity="0.01"/>
</radialGradient>
<radialGradient id="paint3_radial_1476_2205" cx="0" cy="0" r="1" gradientUnits="userSpaceOnUse" gradientTransform="translate(5.6965 1.82946) rotate(179.966) scale(13.0821 1.67593)">
<stop stop-color="white" stop-opacity="0.8"/>
<stop offset="1" stop-color="white" stop-opacity="0.01"/>
</radialGradient>
<linearGradient id="paint4_linear_1476_2205" x1="24.0186" y1="10.5618" x2="24.0186" y2="8.80497" gradientUnits="userSpaceOnUse">
<stop offset="0.1548" stop-color="#A1A1A1"/>
<stop offset="0.9205" stop-color="white"/>
</linearGradient>
<linearGradient id="paint5_linear_1476_2205" x1="24.0186" y1="10.5618" x2="24.0186" y2="8.80497" gradientUnits="userSpaceOnUse">
<stop stop-color="#333333"/>
<stop offset="0.1883"/>
<stop offset="0.3849" stop-color="#333333"/>
<stop offset="0.5983"/>
<stop offset="0.8033" stop-color="#333333"/>
<stop offset="1"/>
</linearGradient>
<linearGradient id="paint6_linear_1476_2205" x1="24.019" y1="1.47556" x2="24.019" y2="3.23243" gradientUnits="userSpaceOnUse">
<stop offset="0.1548" stop-color="#A1A1A1"/>
<stop offset="0.9205" stop-color="white"/>
</linearGradient>
<radialGradient id="paint7_radial_1476_2205" cx="0" cy="0" r="1" gradientUnits="userSpaceOnUse" gradientTransform="translate(14.8266 5.96508) rotate(179.342) scale(5.18136 12.9807)">
<stop stop-color="white" stop-opacity="0.8"/>
<stop offset="1" stop-color="white" stop-opacity="0.53"/>
</radialGradient>
<linearGradient id="paint8_linear_1476_2205" x1="6.78125" y1="3.65029" x2="6.35417" y2="8.30342" gradientUnits="userSpaceOnUse">
<stop stop-color="#FFD177"/>
<stop offset="0.307292" stop-color="#FFA2A3"/>
<stop offset="0.979167" stop-color="#D18FE9"/>
<stop offset="1" stop-color="#D18FE9"/>
</linearGradient>
</defs>
</svg>
