<svg width="30" height="30" viewBox="0 0 30 30" fill="none" xmlns="http://www.w3.org/2000/svg">
<g id="battery-charging-01">
<path id="Icon" d="M13.5417 18.75L15.625 15H10.625L12.7083 11.25M27.5 16.25V13.75M8.5 22.5H17.75C19.8502 22.5 20.9003 22.5 21.7025 22.0913C22.4081 21.7317 22.9817 21.1581 23.3413 20.4525C23.75 19.6503 23.75 18.6002 23.75 16.5V13.5C23.75 11.3998 23.75 10.3497 23.3413 9.54754C22.9817 8.84193 22.4081 8.26825 21.7025 7.90873C20.9003 7.5 19.8502 7.5 17.75 7.5H8.5C6.3998 7.5 5.3497 7.5 4.54754 7.90873C3.84193 8.26825 3.26825 8.84193 2.90873 9.54754C2.5 10.3497 2.5 11.3998 2.5 13.5V16.5C2.5 18.6002 2.5 19.6503 2.90873 20.4525C3.26825 21.1581 3.84193 21.7317 4.54754 22.0913C5.3497 22.5 6.3998 22.5 8.5 22.5Z" stroke="white" stroke-width="2" stroke-linecap="round" stroke-linejoin="round"/>
</g>
</svg>
