<svg width="24" height="24" viewBox="0 0 24 24" fill="none" xmlns="http://www.w3.org/2000/svg">
<g id="ic_dest">
<rect id="Rectangle 53" width="24" height="24" rx="12" fill="#837EF3"/>
<path id="P" d="M12.9434 13.6236H10.9061C10.4145 13.6236 10.016 13.2251 10.016 12.7335C10.016 12.2419 10.4145 11.8434 10.9061 11.8434H12.9434C13.4222 11.8434 13.8099 11.761 14.1065 11.5962C14.4084 11.4258 14.6295 11.1951 14.7701 10.9038C14.9106 10.6071 14.9808 10.2692 14.9808 9.89011C14.9808 9.52198 14.9106 9.17857 14.7701 8.85989C14.6295 8.54121 14.4084 8.28297 14.1065 8.08516C13.8099 7.88736 13.4222 7.78846 12.9434 7.78846H11.7185C11.1663 7.78846 10.7185 8.23618 10.7185 8.78846V17C10.7185 17.5523 10.2708 18 9.71854 18H9.57178C9.01949 18 8.57178 17.5523 8.57178 17V7C8.57178 6.44772 9.01949 6 9.57178 6H12.9434C13.8281 6 14.5827 6.16758 15.2072 6.50275C15.8369 6.83242 16.3157 7.29121 16.6436 7.87912C16.9767 8.46154 17.1432 9.12637 17.1432 9.87363C17.1432 10.6484 16.9767 11.3159 16.6436 11.8764C16.3157 12.4368 15.8369 12.8681 15.2072 13.1703C14.5827 13.4725 13.8281 13.6236 12.9434 13.6236Z" fill="white"/>
</g>
</svg>
