<svg width="25" height="24" viewBox="0 0 25 24" fill="none" xmlns="http://www.w3.org/2000/svg">
<g clip-path="url(#clip0_395_2613)">
<path d="M24.0078 12.2245C24.0078 11.2413 23.9295 10.5237 23.7598 9.77963H12.7295V14.2176H19.2041C19.0736 15.3205 18.3687 16.9815 16.8022 18.0976L16.7802 18.2461L20.2678 20.9963L20.5095 21.0209C22.7285 18.9347 24.0078 15.8653 24.0078 12.2245Z" fill="#4285F4"/>
<path d="M12.7296 23.9176C15.9016 23.9176 18.5645 22.8545 20.5095 21.0209L16.8023 18.0976C15.8102 18.8018 14.4787 19.2934 12.7296 19.2934C9.6228 19.2934 6.98598 17.2074 6.04603 14.324L5.90825 14.3359L2.2818 17.1927L2.23438 17.3269C4.1663 21.2334 8.13462 23.9176 12.7296 23.9176Z" fill="#34A853"/>
<path d="M6.04621 14.324C5.7982 13.5799 5.65466 12.7825 5.65466 11.9588C5.65466 11.1349 5.7982 10.3377 6.03316 9.59357L6.02659 9.4351L2.3547 6.53238L2.23457 6.59055C1.43833 8.21165 0.981445 10.0321 0.981445 11.9588C0.981445 13.8854 1.43833 15.7058 2.23457 17.3269L6.04621 14.324Z" fill="#FBBC05"/>
<path d="M12.7295 4.62406C14.9356 4.62406 16.4237 5.59405 17.2722 6.40464L20.5878 3.10931C18.5515 1.18263 15.9015 3.05176e-05 12.7295 3.05176e-05C8.13462 3.05176e-05 4.1663 2.68409 2.23438 6.59059L6.03297 9.59362C6.98597 6.71023 9.62279 4.62406 12.7295 4.62406Z" fill="#EB4335"/>
</g>
<defs>
<clipPath id="clip0_395_2613">
<rect width="23.04" height="24" fill="white" transform="translate(0.97998)"/>
</clipPath>
</defs>
</svg>
