<svg width="42" height="42" viewBox="0 0 42 42" fill="none" xmlns="http://www.w3.org/2000/svg">
<rect width="42" height="42" rx="21" fill="#EFEEF7" fill-opacity="0.85"/>
<path fill-rule="evenodd" clip-rule="evenodd" d="M16.2884 11.1572C18.9415 9.58899 22.2025 9.6164 24.8307 11.229C27.433 12.8744 29.0146 15.811 28.9999 18.97C28.9393 22.1083 27.2434 25.0582 25.1234 27.3387C23.8999 28.6608 22.5311 29.83 21.0451 30.8222C20.892 30.9122 20.7244 30.9725 20.5504 31C20.383 30.9927 20.2199 30.9424 20.076 30.8535C17.8073 29.3627 15.8169 27.4597 14.2007 25.2361C12.8483 23.3799 12.0799 21.1374 12 18.8131C11.9982 15.6481 13.6354 12.7254 16.2884 11.1572ZM17.8214 20.1226C18.2677 21.2419 19.3211 21.9719 20.4898 21.9719C21.2554 21.9775 21.9913 21.6655 22.5337 21.1055C23.076 20.5455 23.3796 19.784 23.3769 18.9906C23.381 17.7796 22.6802 16.6854 21.6016 16.2191C20.5231 15.7527 19.2796 16.0061 18.4518 16.8609C17.624 17.7157 17.3751 19.0034 17.8214 20.1226Z" fill="white"/>
</svg>
