<svg width="28" height="30" viewBox="0 0 28 30" fill="none" xmlns="http://www.w3.org/2000/svg">
<g id="pilcrow-square">
<path id="Icon" d="M11.25 21.25V8.75H16.25C18.3211 8.75 20 10.4289 20 12.5C20 14.5711 18.3211 16.25 16.25 16.25H11.25M20.25 26.25H9.75C7.6498 26.25 6.59971 26.25 5.79754 25.8413C5.09193 25.4817 4.51825 24.9081 4.15873 24.2025C3.75 23.4003 3.75 22.3502 3.75 20.25V9.75C3.75 7.6498 3.75 6.5997 4.15873 5.79754C4.51825 5.09193 5.09193 4.51825 5.79754 4.15873C6.59971 3.75 7.6498 3.75 9.75 3.75H20.25C22.3502 3.75 23.4003 3.75 24.2025 4.15873C24.9081 4.51825 25.4817 5.09193 25.8413 5.79754C26.25 6.5997 26.25 7.6498 26.25 9.75V20.25C26.25 22.3502 26.25 23.4003 25.8413 24.2025C25.4817 24.9081 24.9081 25.4817 24.2025 25.8413C23.4003 26.25 22.3502 26.25 20.25 26.25Z" stroke="white" stroke-width="2" stroke-linecap="round" stroke-linejoin="round"/>
</g>
</svg>
