<svg width="29" height="30" viewBox="0 0 29 30" fill="none" xmlns="http://www.w3.org/2000/svg">
<g id="star-01">
<path id="Icon" d="M14.1033 4.31671C14.3914 3.73303 14.5355 3.4412 14.731 3.34795C14.9012 3.26683 15.0989 3.26683 15.269 3.34795C15.4646 3.4412 15.6086 3.73303 15.8967 4.31671L18.6301 9.85417C18.7151 10.0265 18.7577 10.1126 18.8198 10.1795C18.8748 10.2388 18.9408 10.2867 19.0141 10.3208C19.0969 10.3593 19.192 10.3732 19.3822 10.401L25.4962 11.2947C26.1401 11.3888 26.462 11.4359 26.611 11.5931C26.7406 11.7299 26.8016 11.9179 26.7769 12.1048C26.7485 12.3195 26.5155 12.5465 26.0493 13.0005L21.6268 17.3081C21.4889 17.4424 21.42 17.5095 21.3755 17.5894C21.3362 17.6601 21.3109 17.7378 21.3011 17.8182C21.2901 17.909 21.3064 18.0038 21.3389 18.1935L22.3824 24.2777C22.4925 24.9194 22.5475 25.2403 22.4441 25.4307C22.3541 25.5963 22.1942 25.7125 22.0088 25.7469C21.7958 25.7864 21.5076 25.6349 20.9314 25.3318L15.4655 22.4574C15.2952 22.3678 15.21 22.323 15.1203 22.3054C15.0409 22.2898 14.9592 22.2898 14.8797 22.3054C14.79 22.323 14.7049 22.3678 14.5346 22.4574L9.06865 25.3318C8.49239 25.6349 8.20426 25.7864 7.99121 25.7469C7.80585 25.7125 7.6459 25.5963 7.55592 25.4307C7.4525 25.2403 7.50753 24.9194 7.61759 24.2777L8.66111 18.1935C8.69364 18.0038 8.70991 17.909 8.6989 17.8182C8.68915 17.7378 8.66389 17.6601 8.62451 17.5894C8.58003 17.5095 8.5111 17.4424 8.37323 17.3081L3.9507 13.0005C3.48458 12.5465 3.25152 12.3195 3.22316 12.1048C3.19848 11.9179 3.25944 11.7299 3.38906 11.5931C3.53804 11.4359 3.85996 11.3888 4.5038 11.2947L10.6179 10.401C10.808 10.3732 10.9031 10.3593 10.9859 10.3208C11.0592 10.2867 11.1252 10.2388 11.1802 10.1795C11.2424 10.1126 11.2849 10.0265 11.37 9.85417L14.1033 4.31671Z" stroke="white" stroke-width="2" stroke-linecap="round" stroke-linejoin="round"/>
</g>
</svg>
