<svg width="34" height="24" viewBox="0 0 34 24" fill="none" xmlns="http://www.w3.org/2000/svg">
<rect x="0.5" y="0.5" width="33" height="23" rx="3.5" fill="white"/>
<rect x="0.5" y="0.5" width="33" height="23" rx="3.5" stroke="#F2F4F7"/>
<path d="M20.5639 8C18.9762 8 17.5574 8.82291 17.5574 10.3433C17.5574 12.0869 20.0737 12.2073 20.0737 13.0832C20.0737 13.4521 19.6511 13.7822 18.9292 13.7822C17.9047 13.7822 17.1389 13.3209 17.1389 13.3209L16.8113 14.8551C16.8113 14.8551 17.6934 15.2448 18.8645 15.2448C20.6003 15.2448 21.9662 14.3815 21.9662 12.8351C21.9662 10.9927 19.4394 10.8758 19.4394 10.0628C19.4394 9.77391 19.7864 9.45735 20.5062 9.45735C21.3184 9.45735 21.981 9.79285 21.981 9.79285L22.3017 8.31104C22.3017 8.31104 21.5807 8 20.5639 8ZM6.03844 8.11184L6 8.3355C6 8.3355 6.66793 8.45775 7.2695 8.70159C8.04408 8.98121 8.09926 9.14398 8.22971 9.64957L9.65124 15.1295H11.5568L14.4925 8.11184H12.5913L10.7049 12.8832L9.93519 8.83876C9.8646 8.37588 9.50703 8.11184 9.06935 8.11184H6.03844ZM15.257 8.11184L13.7655 15.1295H15.5785L17.0647 8.11184H15.257ZM25.3684 8.11184C24.9312 8.11184 24.6996 8.34589 24.5297 8.75489L21.8736 15.1295H23.7748L24.1426 14.067H26.4588L26.6825 15.1295H28.36L26.8965 8.11184H25.3684ZM25.6157 10.0078L26.1792 12.6412H24.6694L25.6157 10.0078Z" fill="#1434CB"/>
</svg>
