<svg width="28" height="30" viewBox="0 0 28 30" fill="none" xmlns="http://www.w3.org/2000/svg">
<g id="file-question-02">
<path id="Icon" d="M25 11.875V8.5C25 6.3998 25 5.3497 24.5913 4.54754C24.2317 3.84193 23.6581 3.26825 22.9525 2.90873C22.1503 2.5 21.1002 2.5 19 2.5H11C8.8998 2.5 7.8497 2.5 7.04754 2.90873C6.34193 3.26825 5.76825 3.84193 5.40873 4.54754C5 5.3497 5 6.3998 5 8.5V21.5C5 23.6002 5 24.6503 5.40873 25.4525C5.76825 26.1581 6.34193 26.7317 7.04754 27.0913C7.8497 27.5 8.8998 27.5 11 27.5H17.5M17.5 13.75H10M12.5 18.75H10M20 8.75H10M20.625 18.7528C20.8452 18.1267 21.28 17.5988 21.8522 17.2625C22.4244 16.9262 23.0971 16.8033 23.7513 16.9155C24.4054 17.0277 24.9988 17.3678 25.4262 17.8755C25.8536 18.3833 26.0875 19.0259 26.0866 19.6896C26.0866 21.5632 23.2761 22.5 23.2761 22.5M23.3124 26.25H23.3249" stroke="white" stroke-width="2" stroke-linecap="round" stroke-linejoin="round"/>
</g>
</svg>
