<svg width="46" height="63" viewBox="0 0 46 63" fill="none" xmlns="http://www.w3.org/2000/svg">
<rect opacity="0.01" x="3" y="18" width="40" height="40" fill="white"/>
<path fill-rule="evenodd" clip-rule="evenodd" d="M22 40H24V52H22V40Z" fill="#837EF3"/>
<path d="M23.5 62C25.9853 62 28 59.9853 28 57.4999C28 55.0147 25.9853 53 23.5 53C21.0147 53 19 55.0147 19 57.4999C19 59.9853 21.0147 62 23.5 62Z" fill="#837EF3"/>
<path fill-rule="evenodd" clip-rule="evenodd" d="M22.9999 53.3688C20.9945 53.3688 19.3687 54.9945 19.3687 57C19.3687 59.0054 20.9945 60.6312 22.9999 60.6312C25.0054 60.6312 26.6311 59.0054 26.6311 57C26.6311 54.9945 25.0054 53.3688 22.9999 53.3688ZM17 57C17 53.6863 19.6863 51 23 51C26.3137 51 29 53.6863 29 57C29 60.3137 26.3137 63 23 63C19.6863 63 17 60.3137 17 57Z" fill="#FDFDFD"/>
<rect width="46" height="46" rx="23" fill="#837EF3"/>
<path d="M23.1603 26.612H18.6958C18.1435 26.612 17.6958 26.1642 17.6958 25.612V24.1999C17.6958 23.6476 18.1435 23.1999 18.6958 23.1999H23.1603C24.054 23.1999 24.7778 23.0419 25.3315 22.726C25.895 22.3995 26.3078 21.9572 26.5701 21.399C26.8324 20.8304 26.9636 20.1827 26.9636 19.456C26.9636 18.7505 26.8324 18.0923 26.5701 17.4815C26.3078 16.8707 25.895 16.3757 25.3315 15.9966C24.7778 15.6174 24.054 15.4279 23.1603 15.4279H20.0073C19.455 15.4279 19.0073 15.8756 19.0073 16.4279V34C19.0073 34.5523 18.5596 35 18.0073 35H16C15.4477 35 15 34.5523 15 34V13C15 12.4477 15.4477 12 16 12H23.1603C24.8118 12 26.2204 12.3212 27.3862 12.9636C28.5616 13.5955 29.4554 14.4748 30.0674 15.6016C30.6891 16.7179 31 17.9922 31 19.4245C31 20.9093 30.6891 22.1889 30.0674 23.263C29.4554 24.3372 28.5616 25.1639 27.3862 25.7431C26.2204 26.3223 24.8118 26.612 23.1603 26.612Z" fill="white"/>
</svg>
